# xmcd
#
# Track frame offsets:
#	150
#	9837
#	20757
#	32442
#	49922
#	64497
#	81197
#	101847
#	113955
#	128635
#	141777
#	149870
#	161297
#	175327
#	190315
#	201545
#
# Disc length: 2870 seconds
#
# Revision: 3
# Processed by: cddbd v1.5.2PL0 Copyright (c) Steve Scherf et al.
# Submitted via: audiograbber 1.83.01
#
DISCID=eb0b3410
DTITLE=Johnny Cash - American III: Solitary Man
DYEAR=2000
DGENRE=
TTITLE0=I won't back down
TTITLE1=solitary man
TTITLE2=that lucky old sun (just rolls arround heaven all day)
TTITLE3=one
TTITLE4=nobody
TTITLE5=I see a darkness
TTITLE6=the mercy seat
TTITLE7=would you lay with me (in a field of stone)
TTITLE8=field of diamonds
TTITLE9=before my time
TTITLE10=country trash
TTITLE11=mary of the wild
TTITLE12=I'm leaving now
TTITLE13=wayfaring stranger
TTITLE14=thirteen
TTITLE15=redemption
EXTD=
EXTT0=
EXTT1=
EXTT2=
EXTT3=
EXTT4=
EXTT5=
EXTT6=
EXTT7=
EXTT8=
EXTT9=
EXTT10=
EXTT11=
EXTT12=
EXTT13=
EXTT14=
EXTT15=
PLAYORDER=
